# xmcd
#
# Track frame offsets: 
#        150
#        25395
#        47110
#        59660
#        90660
#        115900
#        131170
#        145210
#        158125
#
# Disc length: 2287 seconds
#
# Revision: 2
# Processed by: cddbd v1.5.1PL0 Copyright (c) Steve Scherf et al.
# Submitted via: ExactAudioCopy v0.95a5
#
DISCID=8108ed09
DTITLE=Various Artist - Cheerios Sweet Sounds Tour
DYEAR=1998
DGENRE=Soul
TTITLE0=Isley Brothers - Who's That Lady
TTITLE1=Earth, Wind and Fire - Boogie Wonderland
TTITLE2=Isley Brothers - It's Your Thing
TTITLE3=O'Jays - I Love Music
TTITLE4=Isley Brothers - For The Love Of You
TTITLE5=Earth, Wind, and Fire - Sing A Song
TTITLE6=O'Jays - Backstabbers
TTITLE7=Earth, Wind, and Fire - Shining Star
TTITLE8=O'Jays - Love Train
EXTD=
EXTT0=
EXTT1=
EXTT2=
EXTT3=
EXTT4=
EXTT5=
EXTT6=
EXTT7=
EXTT8=
PLAYORDER=
